<svg xmlns="http://www.w3.org/2000/svg" xmlns:xlink="http://www.w3.org/1999/xlink" width="842.984" height="770.564" xmlns:v="https://vecta.io/nano"><path d="M786.95 457.466a298.78 298.78 0 0 0-20.94-262.906l-477.347 66.094 457.45-95.336a297.76 297.76 0 0 0-236.38-116.376c-164.73 0-298.268 133.54-298.268 298.268a300.83 300.83 0 0 0 2.776 40.702zM231.4 454.6c43.112 111.662 151.463 190.88 278.332 190.88 119.048 0 221.8-69.753 269.628-170.6z" fill="#f2f2f2"/><path d="M771.99 558.337c0 117.214-172.82 212.227-385.994 212.227-114.523 0-217.397-27.417-288.08-70.976-46.12-28.412-78.544-63.7-91.55-102.698C2.165 584.47.016 571.448 0 558.337 0 441.135 319.872-87.55 385.994 346.122S771.99 441.135 771.99 558.337z" fill="#1b262c"/><path d="M577.822 635.302c0 43.278-136.677 78.37-305.286 78.37-64.94 0-125.144-5.205-174.622-14.083-46.12-28.412-78.544-63.7-91.55-102.698 52.343-23.85 151.93-39.956 266.172-39.956 168.61 0 305.286 35.1 305.286 78.37z" opacity=".1"/><path d="M357.458 188.915c-24.194-40.88-72.06-42.786-72.06-42.786s-46.643-5.965-76.565 56.297c-27.9 58.033-66.38 114.066-6.197 127.65l10.87-33.835 6.732 36.354c8.57.616 17.165.763 25.75.44 64.45-2.08 125.83.6 123.855-22.52-2.627-30.745 10.894-82.267-12.385-121.603zM199.2 546.93c-.897 4.462-1.56 8.998-3.086 13.286-1.514 4.257-3.85 8.194-5.236 12.496-4.413 13.7 1.705 28.997 11.474 39.58a64.59 64.59 0 0 0 31.49 18.698c8.814 2.217 17.978 2.536 27.06 2.844 25.15.853 50.95 1.616 74.782-6.467a129.93 129.93 0 0 0 21.726-9.87 16.27 16.27 0 0 0 5.638-4.44c1.818-2.588 2.05-5.944 2.034-9.106-.053-10.662-2.215-21.27-1.702-31.92.284-5.9 1.388-11.794.845-17.674-1.232-13.337-11.823-25.274-24.92-28.086-6.76-1.452-13.773-.66-20.656.001a526.42 526.42 0 0 1-53.758 2.404c-18.34-.117-36.564-2.916-54.812-3.2-5.396-.086-5.287 1.577-7.005 6.8a127.22 127.22 0 0 0-3.876 14.665z" fill="#2f2e41"/><use xlink:href="#B" fill="#a0616a"/><use xlink:href="#B" y="1.17" opacity=".1"/><circle cx="287.078" cy="233.701" r="54.975" fill="#a0616a"/><path d="M258.954 356.83c2.865 2.995 5.9 5.96 9.656 7.716 3.735 1.746 7.942 2.18 12.063 2.297 9.9.28 20.653-1.537 27.546-8.66 8.886-9.184 8.594-23.996 15.56-34.7a7.73 7.73 0 0 1 2.245-2.455c1.168-.636 2.49-.94 3.818-.878 8.797-.082 16.46 5.623 23.376 11.06 3.098 2.436 6.273 4.96 8.228 8.382a28.41 28.41 0 0 1 2.775 8.497c3.432 16.753 4.543 33.883 5.647 50.95.61 9.426 1.22 18.86 1.174 28.307-.15 31.12-7.382 61.72-14.575 91.997-.927 3.9-2.195 8.262-5.743 10.13a14.16 14.16 0 0 1-5.011 1.223c-20.602 2.42-41.247 4.842-61.988 5.16q-12.14.187-24.272-.588c-1.392-.018-2.772-.26-4.09-.713a11.53 11.53 0 0 1-4.458-3.785c-11.22-14.138-11.88-33.683-11.8-51.73q.263-66.19 4.73-132.273c.246-3.636.3-8.053-2.32-10.913 4.718 7.553 11.28 14.538 17.45 20.988z" fill="#d0cde1"/><g fill="#575a89"><path d="M247.3 293.354c-1.857 3.36-15.546 11.707-18.2 14.493-14.766 15.564-41.715 14.98-55.22 31.65-4.75 5.865-7.22 13.235-9.035 20.56-2.568 10.362-3.94 21.663.363 31.434 4.14 9.4 12.852 15.9 18.767 24.3 6.495 9.22 9.416 20.417 12.214 31.343 2.066 8.067 4.15 16.335 3.345 24.624-.915 9.424-5.475 18.054-8.168 27.13s-3.157 19.9 3.068 27.023c4.574 5.24 11.748 7.32 18.606 8.488 8.753 1.492 17.648 1.917 26.52 2.3 7.84.346 16.48.414 22.506-4.612 4.755-3.965 6.822-10.4 7.1-16.585s-1.02-12.316-1.826-18.455c-.836-6.364-1.157-12.783-1.425-19.195q-1.808-43.16-.494-86.373c.183-5.995.404-12.063-.874-17.923-1.68-7.707-5.846-14.594-9.322-21.675-6.898-14.055-10.16-27.708-9.094-43.33 1.053-15.42 7.777-27.166 1.17-15.206zm77.198 1.17c2.828 2.907 12.438 3.865 16.036 5.737 3.305 1.72 6.962 2.618 10.54 3.65a136.85 136.85 0 0 1 37.032 16.996c2.374 1.4 4.473 3.202 6.193 5.35 2.013 2.8 2.743 6.294 3.426 9.674 1.762 8.726 3.532 17.557 3.136 26.45-.42 9.44-3.264 18.583-6.085 27.6l-10.54 33.698c-7.868 25.153-15.785 50.553-18 76.815a180.69 180.69 0 0 0 1.622 43.628c.232 1.45.426 3.112-.532 4.226a4.16 4.16 0 0 1-2.581 1.188c-5.087.795-10-1.798-14.62-4.094a161.92 161.92 0 0 0-44.63-14.603 103.75 103.75 0 0 0 13.862-28.575 172.94 172.94 0 0 0 4.188-19.652l4.903-28.36c1.798-10.4 3.6-20.825 4.206-31.36a39.26 39.26 0 0 0-.682-11.813c-.94-3.744-2.806-7.175-4.478-10.654-8.08-16.8-11.872-36-8.693-54.368 1.4-8.043 4.095-16.096 2.968-24.18-1.084-7.772.043-13.813-1.952-21.504-8.188-31.58-.642-11.317 4.68-5.848z"/><path d="M173.76 366.074c-3.684 7.645-9.843 14.157-11.94 22.38-.816 3.843-1.165 7.77-1.04 11.697-.05 5.918-.082 11.956 1.735 17.6 1.17 3.626 3.073 6.97 4.445 10.525a38.19 38.19 0 0 1 2.5 15.594c-.37 7.364-2.872 14.512-3.067 21.882-.307 11.6 5.054 22.487 10.285 32.835a24.14 24.14 0 0 1 35.085-11.487c1.38-1.274 1.527-3.367 1.58-5.245q.58-20.17 1.12-40.342c.566-20.798 1.106-41.874-3.68-62.122-2.16-9.142-5.52-18.25-11.683-25.34-3.244-3.734-14.26-13.568-19.584-9.386-2.395 1.88-1.835 7-2.215 9.594a40.71 40.71 0 0 1-3.542 11.824zm228.188-22.03c1.742 5.426 1.847 11.223 1.88 16.922q.106 17.437-.462 34.87c-.194 5.95-.46 11.98-2.265 17.654-1.2 3.74-3.026 7.25-4.254 10.978-3.682 11.174-1.67 23.293-1.355 35.054a39.83 39.83 0 0 1-.965 11.339c-1.943 7.3-7.165 13.182-10.8 19.8-3.462 6.274-5.55 13.307-9.685 19.16s-11.3 10.5-18.228 8.694c-5.256-1.36-9-6.014-11.574-10.8a52.92 52.92 0 0 1-5.472-34.328c2.594-14.274 10.978-26.937 14.002-41.127 4.152-19.485-2.16-39.592-1.97-59.514a28.77 28.77 0 0 1 1.254-9.225c1.586-4.55 4.993-8.184 8.14-11.834a149.41 149.41 0 0 0 10.94-14.357c2.253-3.36 5.313-12.002 9.307-12.72 8.918-1.604 19.304 12.546 21.517 19.436z"/></g><path d="M127.488 538.263c-4.93-1.24-10.013-1.78-15.094-1.605-10.8.597-20.824 5.808-27.517 14.307s-9.4 19.464-7.46 30.104c1.05 5.725 3.408 11.123 5.98 16.344 4.003 8.124 8.804 16.23 16.215 21.435 4.335 3.045 9.352 4.944 14.3 6.812l39.03 14.704 17.283 6.332a338.06 338.06 0 0 0 90.273 17.946c9.372.558 18.886.713 28.03-1.42 2.17-.506 4.484-1.26 5.74-3.1a9.83 9.83 0 0 0 1.283-4.236l2.402-16.814c.338-2.367.664-4.86-.204-7.088-1.1-2.826-3.858-4.603-6.488-6.114-25.66-14.738-55.62-22.868-77.22-43.096-5.085-4.762-9.34-12.3-15.517-15.544-7.005-3.668-15.256-5.76-22.497-9.142-15.83-7.39-31.394-15.88-48.55-19.824z" fill="#2f2e41"/><path d="M166.454 560.93c13.796 4.323 72.04 34.272 82.025 44.728-1.338.482-46.742-24.963-48.104-25.372-12.384-3.717-24.837-7.458-36.597-12.897-2.366-1.094-15.37-6.237-14.78-9.222.665-3.368 15.01 1.995 17.458 2.763z" opacity=".1"/><g fill="#a0616a"><path d="M338.564 673.362a3.24 3.24 0 0 0 2.187-.644 3.38 3.38 0 0 0 .684-2.517q-.032-11.453-.064-22.906c-6.587-3.138-13.955-4.144-21.187-5.11l-33.744-4.5c.775.104-5.276 14.534-4.348 16.46 1.635 3.395 14.133 6.405 17.66 8.008 12.26 5.573 25.003 11.7 38.813 11.22z"/><path d="M232.694 647.217c-6.37 1.015-13.482 1.912-17.608 6.87-5.232 6.29-3.005 15.665-.51 23.456a10.1 10.1 0 0 0 2.17 4.268c1.703 1.68 4.314 1.927 6.702 2.078 5.8.368 11.994.656 17.07-2.194 2.404-1.35 4.39-3.322 6.63-4.93 3.744-2.49 7.86-4.372 12.192-5.574 7.966-2.506 16.166-4.196 24.473-5.044 3.256-.332 6.578-.546 9.64-1.7s5.9-3.442 6.8-6.592c1.176-4.163-1.243-8.407-3.564-12.057-2.9-4.548-5.953-9.336-10.262-12.684-6.287-4.884-9.398-1.135-15.73 1.99a133.47 133.47 0 0 1-37.995 12.109z"/></g><g fill="#2f2e41"><path d="M216.044 652.955L175.6 640.998c-4.92-1.454-9.924-2.92-15.054-2.917s-10.498 1.686-13.825 5.6c-3.137 3.682-4.035 8.714-4.817 13.487l-1.673 10.2c-.85 5.2-1.702 10.478-.937 15.68s3.42 10.4 8.037 12.918c5.598 3.054 12.46 1.562 18.707.285 12.62-2.58 25.456-3.956 38.336-4.1 4.842-.058 9.92.003 14.2-2.265 5.086-2.696 8.13-8.395 8.652-14.128.796-8.722-2.1-20.115-11.17-22.793zm138.422-10.42c5.244-.92 9.873-3.9 14.898-5.66 7.073-2.476 14.738-2.476 22.232-2.45 2.75.01 5.68.072 7.97 1.596 3.3 2.198 4.147 6.596 4.708 10.52q1.693 11.843 3.387 23.686c.637 4.455 1.27 9.03.277 13.42s-3.985 8.62-8.34 9.753c-5.3 1.375-10.476-2.004-15.47-4.224-12.484-5.548-26.996-4.13-40.012-8.277-2.416-.77-5.003-1.946-5.988-4.282a9.75 9.75 0 0 1-.466-4.093c.223-7.613-1.383-18 .9-25.285 2.06-6.544 10.042-4.705 15.896-4.705z"/><path d="M440.076 528.73a70.25 70.25 0 0 1 24.747-1.691c6.616.73 13.432 2.57 18.262 7.15 5.88 5.573 7.768 14.193 7.926 22.293.258 16.132-5.092 31.854-15.138 44.48a40.36 40.36 0 0 1-8.655 8.331c-3.543 2.216-7.32 4.036-11.26 5.426l-87.408 34.476c-22.995 9.07-46.07 18.166-70.056 24.145a5.46 5.46 0 0 1-7.347-2.664 181.09 181.09 0 0 1-19.157-35.044 2.36 2.36 0 0 1 1.044-3.723l61.824-35.522c4.428-2.544 8.906-5.126 12.583-8.67a31.24 31.24 0 0 0 6.46-8.994c1.282-2.677 1.4-8.993 3.038-10.972 1.603-1.937 7.085-2.092 9.617-2.854 3.57-1.094 7.068-2.416 10.47-3.958 13.83-6.187 26.145-15.176 39.402-22.42a101.1 101.1 0 0 1 23.647-9.789z"/></g><path d="M405.027 555.258c-10.622 7.978-24.375 15.31-34.902 23.5-3.593 2.794-63.486 36.467-64.332 40.94 9.82 1.655 72.383-42.112 81.334-46.48s16.886-10.526 24.75-16.64c2.004-1.558 10.496-6.24 4.743-7.982-3.24-.98-9.2 5.068-11.592 6.663z" opacity=".1"/><path d="M331.943 295.297h-93.238c-7.888 0-14.283 6.395-14.283 14.283v5.23h-1.013v11.697h1.013v8.188h-1.013v7.018h1.013v86.306c0 7.888 6.395 14.283 14.283 14.283h93.238c7.888 0 14.283-6.395 14.283-14.283V309.58c0-7.888-6.395-14.283-14.283-14.283z" fill="#3f3d56"/><path fill="#2f2e41" d="M346.76 184.974l-47.3-24.77-65.305 10.134-13.51 59.675 33.634-1.294 9.396-21.924v21.563l15.52-.597 9.008-34.904 5.63 37.156 55.172-1.126-2.252-43.912z"/><path d="M186.133 521c2.336 3.488 5.074 6.9 8.827 8.782 4.7 2.35 10.478 1.932 15.174-.407a26.71 26.71 0 0 0 10.951-10.979c5.14-9.076 6.204-19.935 5.563-30.345s-2.864-20.66-3.848-31.044c-.715-7.548-.773-15.14-.83-22.722-.012-1.593.014-3.3.955-4.595 1.138-1.555 3.223-1.983 5.07-2.532 10.373-3.082 17.258-12.804 22.194-22.433 3.296-6.43 6.162-13.458 5.526-20.656s-5.8-14.448-12.997-15.182c-5.926-.605-11.398 3.16-15.672 7.307-10.783 10.53-17.714 24.38-19.677 39.325-.938 7.318-.67 14.835-2.66 21.94-4.25 15.17-17.547 24.47-24.174 38.12-7.302 15.04-3.272 32.116 5.6 45.423zm195.68-57.953a28.67 28.67 0 0 1-16.077 15.448 22.21 22.21 0 0 1-13.976.856 15.5 15.5 0 0 1-10.238-9.157 24.67 24.67 0 0 1-1.153-6.878c-.665-10.23-.408-20.77 3.308-30.325 1.433-3.685 3.366-7.18 4.497-10.968 1.3-4.32 1.496-8.88 1.693-13.386l1.22-27.9a18.15 18.15 0 0 0-.415-6.052c-1.218-4.04-4.993-6.663-8.456-9.072-8.364-5.817-16.63-12.604-20.682-21.95-1.24-2.86-2.06-6.04-1.43-9.092 1.143-5.542 6.736-9.13 12.264-10.34 7.3-1.598 14.954-.142 21.164 4.032a27.43 27.43 0 0 1 11.725 18.075c.547 3.15.54 6.367.86 9.548.68 6.747 2.82 13.252 4.16 19.9 3.3 16.375 1.6 33.302 4.855 49.674 2.73 13.7 13.02 22.62 6.678 37.6z" fill="#a0616a"/><circle cx="286.572" cy="346.391" r="11.697" fill="#d0cde1"/><g fill="#3f3d56"><path d="M780.32 358.914c-25.345 0-48.194 15.267-57.893 38.683s-4.338 50.368 13.584 68.3 44.874 23.283 68.3 13.584 38.683-32.548 38.683-57.893c0-16.62-6.602-32.558-18.354-44.3s-27.7-18.354-44.3-18.354zm30.97 46.77a42.52 42.52 0 0 1 .05 2.063c0 21.14-16.074 45.517-45.5 45.517a44.66 44.66 0 0 1-24.458-7.229c1.265.152 2.538.23 3.812.23 7.2.013 14.193-2.4 19.854-6.85-6.84-.13-12.843-4.592-14.936-11.107.99.2 1.995.3 3.004.297 1.42 0 2.837-.19 4.208-.56-7.46-1.508-12.825-8.066-12.823-15.678v-.198c2.22 1.248 4.714 1.934 7.262 1.997-7.035-4.7-9.21-14.042-4.968-21.356a45.28 45.28 0 0 0 32.941 16.718c-.28-1.195-.42-2.42-.413-3.647-.008-6.562 4-12.462 10.102-14.874s13.06-.846 17.54 3.948a31.75 31.75 0 0 0 10.15-3.878c-1.193 3.704-3.69 6.848-7.03 8.846 3.167-.384 6.26-1.235 9.176-2.525-2.144 3.213-4.843 6.018-7.97 8.285z"/><circle cx="760.172" cy="184.616" r="11.135"/><path d="M774.1 156.78h-27.837c-7.678.022-13.896 6.24-13.92 13.92v27.837c.022 7.678 6.24 13.896 13.92 13.92H774.1c7.678-.023 13.896-6.24 13.92-13.92V170.7c-.023-7.678-6.24-13.896-13.92-13.92zm-13.92 44.54c-9.224 0-16.702-7.478-16.702-16.702s7.478-16.702 16.702-16.702 16.702 7.478 16.702 16.702a16.71 16.71 0 0 1-16.702 16.702zm18.094-30.62a4.18 4.18 0 0 1-4.176-4.176 4.18 4.18 0 0 1 4.176-4.176 4.18 4.18 0 0 1 4.176 4.176c.003 1.108-.436 2.172-1.22 2.956s-1.847 1.223-2.956 1.22zm-18.807-51.56c-36.484 0-66.06 29.576-66.06 66.06s29.576 66.06 66.06 66.06 66.06-29.576 66.06-66.06a66.06 66.06 0 0 0-66.061-66.061zm34.12 79.394c-.03 10.75-8.737 19.455-19.486 19.486h-27.837c-10.75-.03-19.455-8.737-19.486-19.486v-27.837c.03-10.75 8.737-19.455 19.486-19.486h27.837c10.75.03 19.455 8.737 19.486 19.486zM491.492 0c-35.9 0-65 29.1-65 65s29.1 65 65 65 65-29.1 65-65a65 65 0 0 0-65-65zm20.495 39.33h-8.32c-5.68 0-6.765 2.687-6.765 6.647v8.415h13.53l-1.768 13.2h-11.762v35.828h-15.086V67.593h-10.82v-13.2h10.82v-9.76c0-11.7 8.1-18.056 18.55-18.056 4.997 0 10.37.377 11.62.542z"/></g><defs ><path id="B" d="M251.243 283.65c-.88 4.615-1.834 9.398-4.607 13.2-3.2 4.363-8.392 6.856-11.825 11.03-5.166 6.285-5.463 15.13-5.484 23.265-.02 7.495.133 15.49 4.312 21.7 2.713 4.038 6.84 6.868 10.874 9.587 15.674 10.563 32.61 21.315 51.51 21.664 7.83.144 16.226-1.878 21.378-7.776a32.1 32.1 0 0 0 5.176-9.234c4.832-11.91 7.76-24.508 8.68-37.33.43-6.032.39-12.24-1.652-17.932-2.296-6.4-6.938-11.667-10.006-17.736-3.627-7.216-4.953-15.37-3.8-23.365a2.52 2.52 0 0 0-.133-1.693c-.512-.577-1.264-.882-2.033-.824l-37.47-2.698a81.54 81.54 0 0 1-10.404-1.19c-2.02-.41-7.355-3.28-9.28-2.517-3.565 1.412-4.5 18.022-5.232 21.848z"/></defs></svg>