<svg id="bold" enable-background="new 0 0 24 24" height="512" viewBox="0 0 24 24" width="512" xmlns="http://www.w3.org/2000/svg"><path d="m17.5 11c-3.584 0-6.5 2.916-6.5 6.5s2.916 6.5 6.5 6.5 6.5-2.916 6.5-6.5-2.916-6.5-6.5-6.5zm3.252 4.909-3.5 4c-.182.208-.442.332-.719.341-.011 0-.022 0-.033 0-.265 0-.519-.105-.707-.293l-2-2c-.391-.391-.391-1.023 0-1.414s1.023-.391 1.414 0l1.244 1.244 2.796-3.196c.364-.414.996-.458 1.411-.094s.458.996.094 1.412z"/><path d="m16.68 3.03-8-3c-.12-.04-.24-.04-.36 0l-8 3c-.19.07-.32.26-.32.47v6.43c0 9.12 8.31 11.04 8.39 11.06.04.01.07.01.11.01s.07 0 .11-.01c.02 0 .41-.09 1.01-.32-.4-.98-.62-2.05-.62-3.17 0-4.52 3.54-8.23 8-8.49v-5.51c0-.21-.13-.4-.32-.47z"/></svg>