<svg xmlns="http://www.w3.org/2000/svg" height="512" viewBox="0 0 24 24" width="512"  xmlns:v="https://vecta.io/nano"><path d="M17.5 11a6.51 6.51 0 0 0-6.5 6.5 6.51 6.51 0 0 0 6.5 6.5 6.51 6.51 0 0 0 6.5-6.5 6.51 6.51 0 0 0-6.5-6.5zm3.252 4.9l-3.5 4a1 1 0 0 1-.719.341H16.5a1 1 0 0 1-.707-.293l-2-2a1 1 0 0 1 1.414-1.414l1.244 1.244 2.796-3.196a1 1 0 1 1 1.505 1.318zM16.68 3.03l-8-3c-.12-.04-.24-.04-.36 0l-8 3A.5.5 0 0 0 0 3.5v6.43C0 19.05 8.3 20.97 8.4 21a.41.41 0 0 0 .11.01c.04 0 .07 0 .1-.01.02 0 .4-.1 1-.32A8.37 8.37 0 0 1 9 17.5 8.53 8.53 0 0 1 17 9V3.5a.5.5 0 0 0-.32-.47z"/></svg>