<svg xmlns="http://www.w3.org/2000/svg" width="910.888" height="653.614"  xmlns:v="https://vecta.io/nano"><path fill="#3f3d56" d="M0 646.476h431.182v1.875H0z"/><path fill="#ffb8b8" d="M109.607 639.942h12.26l5.833-47.288h-18.094l.002 47.288z"/><path d="M145.51 651.325l-38.53.002V636.44l23.644-.001a14.89 14.89 0 0 1 14.888 14.886h0 0z" fill="#2f2e41"/><path fill="#ffb8b8" d="M44.38 637.585l12.153 1.62 12.032-46.102-17.935-2.39-6.25 46.873z"/><path d="M78.464 653.614l-38.193-5.092 1.967-14.756 23.436 3.125a14.89 14.89 0 0 1 12.789 16.724h0zM61.796 444.64l69 3-3 175-18-2-14-119-33 127-18-3 17-181z" fill="#2f2e41"/><path d="M107.796 340.64l-24-4.903-15 109.903s44 29 58-1z" fill="#6c63ff"/><circle cx="97.328" cy="303.171" r="24.561" fill="#ffb8b8"/><path d="M83.796 334.64l-35 11s17 85-11 129c0 0 35 37 50-46 0 0 12-67-4-94zm24 6l26 16s14 117 0 128-26-144-26-144z" fill="#2f2e41"/><path d="M144.606 501.607c-2.157-2.05-3.295-4.95-3.1-7.92a10.05 10.05 0 0 1 4.077-7.468l-10.57-34.136 17.833 5.18 7.304 31.622a10.11 10.11 0 0 1-15.534 12.723zm-89.824-9.873c-2.402-1.757-3.902-4.488-4.097-7.457a10.06 10.06 0 0 1 3.087-7.93l-14.852-32.5 18.35 2.854 11.292 30.426a10.11 10.11 0 0 1-13.778 14.607z" fill="#ffb8b8"/><path d="M57.796 346.64l-9-1-23 75 23 52 18-11-20-43 16-46-5-26zm71 9l5 1 24 117-16 5-19-69 6-54zM80.45 313.256c.674-4.9 3.88-9.103 8.444-11.037 4.728-1.938 10.06-1.12 15.157-.75s10.77.05 14.448-3.5c3.36-3.24 4.115-8.618 2.493-12.995s-5.296-7.775-9.47-9.866a40.79 40.79 0 0 0-13.471-3.56c-6.8-.823-13.805-.928-20.443.804s-4.927 5.444-8.817 11.095-5.055 13.35-2.1 19.536c1.985 4.14 5.54 7.273 9.004 10.286" fill="#2f2e41"/><path d="M629.838 584.306v-1.875c3.727-.001 7.51-.078 11.247-.227l.075 1.873a285.2 285.2 0 0 1-11.322.229zm-11.32-.217c-3.748-.146-7.55-.37-11.3-.666l.147-1.87c3.727.295 7.504.517 11.227.663zm33.942-.69l-.15-1.87a279.28 279.28 0 0 0 11.19-1.123l.225 1.862a283.11 283.11 0 0 1-11.266 1.13zm-56.5-1.093a285.11 285.11 0 0 1-11.213-1.57l.297-1.85c3.678.6 7.425 1.115 11.138 1.56zm78.986-1.62l-.3-1.85a279.87 279.87 0 0 0 11.064-2.019l.373 1.836a280 280 0 0 1-11.138 2.034zm-101.34-1.97a282.51 282.51 0 0 1-11.05-2.471l.446-1.822c3.62.887 7.312 1.713 10.976 2.454zm123.525-2.547l-.45-1.82c3.63-.893 7.285-1.872 10.864-2.91l.522 1.8a280.11 280.11 0 0 1-10.937 2.927zm-145.516-2.84c-3.615-1.044-7.253-2.173-10.813-3.358l.592-1.78a279.89 279.89 0 0 0 10.741 3.336zm167.262-3.458l-.594-1.778a278.12 278.12 0 0 0 10.593-3.781l.666 1.752c-3.514 1.336-7.102 2.616-10.665 3.806zm-188.773-3.705a281.74 281.74 0 0 1-10.53-4.235l.735-1.725c3.447 1.468 6.966 2.883 10.46 4.206zm209.91-4.323l-.736-1.725a279.62 279.62 0 0 0 10.227-4.613l.806 1.693c-3.38 1.607-6.846 3.17-10.296 4.644zm-230.787-4.57c-3.405-1.617-6.82-3.323-10.147-5.072l.872-1.66c3.305 1.736 6.696 3.432 10.078 5.037zm251.188-5.132l-.873-1.66a281.81 281.81 0 0 0 9.829-5.426l.94 1.622a284.11 284.11 0 0 1-9.895 5.463zm-271.265-5.417c-3.267-1.888-6.53-3.864-9.698-5.87l1.003-1.584c3.147 1.994 6.388 3.956 9.633 5.833zm290.83-5.904l-1.003-1.584c3.143-1.99 6.294-4.077 9.367-6.202l1.065 1.542c-3.093 2.14-6.266 4.24-9.43 6.244zm-309.982-6.222c-3.1-2.142-6.192-4.372-9.19-6.628l1.127-1.498c2.98 2.24 6.05 4.456 9.13 6.584zm328.586-6.64l-1.128-1.498a280.68 280.68 0 0 0 8.845-6.936l1.186 1.452a283.17 283.17 0 0 1-8.904 6.982zm-346.693-6.98c-2.9-2.378-5.813-4.848-8.626-7.34l1.243-1.402c2.795 2.476 5.678 4.93 8.57 7.292zM816.1 513.64l-1.243-1.402c2.793-2.475 5.574-5.04 8.265-7.625l1.298 1.353a284.24 284.24 0 0 1-8.32 7.675zm-381.166-7.683a287.64 287.64 0 0 1-8.008-8.004l1.35-1.3a283.25 283.25 0 0 0 7.956 7.951zm397.494-7.997l-1.35-1.3a281.42 281.42 0 0 0 7.632-8.264l1.402 1.245a284.95 284.95 0 0 1-7.684 8.319zm-413.182-8.323a282.89 282.89 0 0 1-7.34-8.617l1.452-1.186a278.56 278.56 0 0 0 7.291 8.558zm428.212-8.618l-1.452-1.186a282.19 282.19 0 0 0 6.95-8.853l1.498 1.128c-2.257 2.998-4.612 5.996-6.995 8.91zm-442.54-8.898a283.33 283.33 0 0 1-6.623-9.17l1.542-1.067c2.12 3.066 4.335 6.13 6.58 9.1zm456.168-9.2l-1.542-1.065a283.53 283.53 0 0 0 6.218-9.386l1.584 1.003a284.89 284.89 0 0 1-6.26 9.449zm-469.04-9.395a283.81 283.81 0 0 1-5.863-9.667l1.622-.94a282.23 282.23 0 0 0 5.824 9.602zm481.178-9.748l-1.622-.94a282.03 282.03 0 0 0 5.445-9.861l1.66.873c-1.748 3.322-3.592 6.662-5.48 9.927zm-492.51-9.814c-1.747-3.316-3.45-6.715-5.063-10.102l1.693-.806a281.07 281.07 0 0 0 5.029 10.034zm503.068-10.257l-1.693-.806a279.58 279.58 0 0 0 4.632-10.274l1.725.736a281.9 281.9 0 0 1-4.663 10.344zm-512.78-10.138a279.7 279.7 0 0 1-4.229-10.47l1.752-.666c1.32 3.47 2.734 6.97 4.2 10.4zM892.7 402.833l-1.753-.665a281.78 281.78 0 0 0 3.785-10.623l1.778.593c-1.19 3.566-2.472 7.164-3.8 10.694zm-529.726-10.398c-1.194-3.564-2.33-7.2-3.376-10.808l1.8-.522a277.86 277.86 0 0 0 3.354 10.735zm536.9-11.1l-1.8-.52a278.43 278.43 0 0 0 2.904-10.866l1.82.447a279.64 279.64 0 0 1-2.922 10.939zM356.653 370.69a281.57 281.57 0 0 1-2.489-11.045l1.837-.375c.746 3.654 1.578 7.346 2.472 10.972zm548.61-11.352l-1.838-.373a279.35 279.35 0 0 0 2.014-11.064l1.85.298a281.68 281.68 0 0 1-2.027 11.139zm-553.14-10.83a281.99 281.99 0 0 1-1.589-11.21l1.86-.225c.45 3.713.98 7.46 1.58 11.135zm556.743-11.523l-1.862-.223c.446-3.71.822-7.476 1.117-11.2l1.87.148c-.298 3.74-.676 7.53-1.124 11.265zM349.4 326.035a283.94 283.94 0 0 1-.686-11.302l1.873-.076c.15 3.73.38 7.508.68 11.227zm561.266-11.615l-1.873-.074c.146-3.736.22-7.52.22-11.245l-.001-.62h1.875l.001.617c0 3.754-.075 7.562-.223 11.323zM350.35 303.412h-1.875v-.315c0-3.657.07-7.36.21-11.003l1.873.072c-.14 3.62-.2 7.298-.2 10.935zm558.414-12.174a280.3 280.3 0 0 0-.693-11.226l1.87-.153a283.96 283.96 0 0 1 .697 11.301zm-557.547-10.3l-1.87-.146a283.71 283.71 0 0 1 1.112-11.267l1.862.222a281.59 281.59 0 0 0-1.105 11.192zm555.714-12.116c-.452-3.697-.987-7.443-1.59-11.133l1.85-.303c.607 3.715 1.146 7.486 1.6 11.208zm-553.056-10.215l-1.85-.297c.594-3.712 1.272-7.46 2.016-11.142l1.837.37c-.738 3.656-1.412 7.38-2.002 11.067zM903.3 246.63c-.752-3.663-1.588-7.353-2.484-10.97l1.82-.45a280.09 280.09 0 0 1 2.501 11.043zm-544.977-10.066l-1.82-.445c.892-3.65 1.87-7.33 2.91-10.943l1.8.52c-1.033 3.59-2.006 7.246-2.89 10.87zM897.89 224.8a277.86 277.86 0 0 0-3.365-10.731l1.778-.597c1.197 3.564 2.337 7.2 3.387 10.804zm-533.346-9.85l-1.78-.59c1.186-3.57 2.464-7.17 3.798-10.7l1.754.663c-1.326 3.506-2.595 7.082-3.773 10.628zm526.182-11.467a279.59 279.59 0 0 0-4.212-10.395l1.723-.74a281.51 281.51 0 0 1 4.241 10.465zM372.52 193.86l-1.726-.734c1.473-3.463 3.04-6.945 4.652-10.348l1.694.803c-1.603 3.38-3.157 6.84-4.62 10.28zm509.366-10.993a279.85 279.85 0 0 0-5.039-10.028l1.657-.876c1.752 3.316 3.46 6.713 5.074 10.097zM382.173 173.5l-1.66-.87c1.747-3.33 3.588-6.673 5.47-9.934l1.624.937c-1.87 3.24-3.7 6.56-5.434 9.867zm489.23-10.48a281.25 281.25 0 0 0-5.835-9.597l1.582-1.006a283.45 283.45 0 0 1 5.874 9.661zm-477.97-9.023l-1.585-1.002c2.01-3.18 4.114-6.36 6.25-9.455l1.542 1.065c-2.122 3.074-4.2 6.234-6.208 9.393zm465.917-9.93c-2.126-3.064-4.344-6.127-6.59-9.102l1.496-1.13a282.98 282.98 0 0 1 6.633 9.163zm-453.13-8.595l-1.5-1.126c2.26-3.007 4.61-6.008 6.985-8.92l1.453 1.185c-2.36 2.892-4.695 5.873-6.94 8.86zm439.59-9.34c-2.364-2.885-4.82-5.76-7.3-8.55l1.4-1.246c2.496 2.807 4.97 5.703 7.35 8.607zm-425.362-8.093l-1.403-1.242a284.1 284.1 0 0 1 7.674-8.328l1.353 1.298c-2.586 2.696-5.15 5.48-7.624 8.272zm410.424-8.7c-2.594-2.692-5.274-5.364-7.965-7.942l1.297-1.354a285.75 285.75 0 0 1 8.017 7.995zm-394.854-7.522l-1.3-1.35a285.25 285.25 0 0 1 8.312-7.684l1.245 1.4a283.38 283.38 0 0 0-8.257 7.634zm378.613-8.04c-2.8-2.477-5.687-4.927-8.577-7.283l1.185-1.453c2.91 2.372 5.815 4.838 8.634 7.332zm-361.8-6.9l-1.188-1.45c2.91-2.382 5.902-4.734 8.896-6.992l1.13 1.497c-2.975 2.242-5.948 4.58-8.837 6.945zm344.36-7.327c-2.99-2.245-6.065-4.457-9.136-6.575l1.064-1.543c3.092 2.132 6.187 4.36 9.2 6.62zm-326.415-6.204l-1.068-1.54c3.1-2.142 6.26-4.246 9.423-6.254l1.005 1.583a279.32 279.32 0 0 0-9.36 6.212zm307.882-6.575a280.12 280.12 0 0 0-9.641-5.821l.937-1.624a284.11 284.11 0 0 1 9.705 5.86zm-288.922-5.465l-.94-1.622c3.24-1.88 6.57-3.72 9.89-5.473l.875 1.658a280.36 280.36 0 0 0-9.823 5.437zm269.413-5.785c-3.31-1.735-6.703-3.426-10.084-5.026l.802-1.694a280.17 280.17 0 0 1 10.152 5.06zm-249.56-4.687l-.807-1.693a283.04 283.04 0 0 1 10.292-4.655l.738 1.723a279.46 279.46 0 0 0-10.223 4.624zm229.192-4.955c-3.446-1.463-6.966-2.874-10.465-4.195l.663-1.754a280.54 280.54 0 0 1 10.534 4.224zM530.21 42l-.668-1.752c3.508-1.337 7.094-2.622 10.66-3.818l.596 1.778a278.3 278.3 0 0 0-10.588 3.792zm187.477-4.087a278.58 278.58 0 0 0-10.745-3.323l.518-1.8c3.61 1.037 7.25 2.163 10.816 3.345zM551.53 34.85l-.524-1.8c3.605-1.05 7.284-2.04 10.934-2.942l.45 1.82a279.38 279.38 0 0 0-10.861 2.921zm144.54-3.142c-3.62-.883-7.313-1.704-10.98-2.442l.37-1.838a280.37 280.37 0 0 1 11.053 2.458zM573.36 29.45l-.376-1.836a282.01 282.01 0 0 1 11.136-2.046l.302 1.85c-3.7.602-7.41 1.286-11.062 2.033zm100.662-2.18c-3.687-.588-7.435-1.11-11.14-1.547l.22-1.862c3.73.442 7.503.966 11.214 1.558zm-78.467-1.437l-.227-1.86c3.73-.454 7.52-.84 11.264-1.143l.152 1.868a281.87 281.87 0 0 0-11.189 1.136zm56.134-1.21a282.9 282.9 0 0 0-11.228-.65l.07-1.874a285.91 285.91 0 0 1 11.302.654zM617.972 24l-.077-1.873c3.748-.155 7.557-.236 11.32-.243l.003 1.875c-3.737.006-7.52.087-11.245.24z" fill="#ccc"/><circle cx="530.383" cy="297.685" r="180.909" fill="#3f3d56"/><ellipse cx="466.175" cy="297.685" rx="96.079" ry="132.167" fill="#fff"/><ellipse cx="434.326" cy="325.685" rx="26.814" ry="42.181" fill="#3f3d56"/><g fill="#6c63ff"><circle cx="885.817" cy="196.655" r="17.81"/><circle cx="680.092" cy="26.246" r="26.246"/><circle cx="662.704" cy="581.351" r="17.81"/></g></svg>