<svg xmlns="http://www.w3.org/2000/svg" xmlns:xlink="http://www.w3.org/1999/xlink" width="859.399" height="767.784" xmlns:v="https://vecta.io/nano"><style><![CDATA[.B{opacity:.5}.C{fill:#47e6b1}.D{fill:#ffb9b9}.E{fill:#575a89}]]></style><defs><linearGradient id="A" x1="344.921" y1="369.397" x2="505.399" y2="369.397" gradientUnits="userSpaceOnUse"><stop offset="0" stop-color="gray" stop-opacity=".25"/><stop offset=".535" stop-color="gray" stop-opacity=".12"/><stop offset="1" stop-color="gray" stop-opacity=".1"/></linearGradient><path id="B" d="M165.3 47.956c-1.71-.745-2.592-2.655-2.047-4.44.043-.132.07-.27.08-.408h0c.05-.81-.44-1.56-1.2-1.84s-1.62-.03-2.11.62h0c-.082.112-.15.234-.204.362-.745 1.71-2.655 2.592-4.44 2.047-.132-.043-.27-.07-.408-.08h0c-.81-.05-1.56.44-1.84 1.2s-.03 1.62.62 2.11h0c.112.082.234.15.362.204 1.71.745 2.592 2.655 2.047 4.44-.043.132-.07.27-.08.408h0c-.05.81.44 1.56 1.2 1.84s1.62.03 2.11-.62h0c.082-.112.15-.234.204-.362.745-1.71 2.655-2.592 4.44-2.047.132.043.27.07.408.08h0c.81.05 1.56-.44 1.84-1.2s.03-1.62-.62-2.11h0c-.112-.082-.234-.15-.362-.204z"/></defs><path d="M431.4 10.746l-269.702 165.97s0 342.314 269.702 529.03C701.1 519.03 701.1 176.717 701.1 176.717z" fill="#3f3d56"/><path d="M433.01 10.746l-4.6 2.837V702.5l4.6 3.238c269.702-186.717 269.702-529.03 269.702-529.03z" fill="#fff" opacity=".04"/><path fill="url(#A)" d="M366.106 347.068l50.843 46.606 63.028-90.924 25.422 21.185-88.45 112.11-72.028-80.502 21.185-8.474z" opacity=".7"/><path fill="#3ad29f" d="M378.106 349.868l41.243 37.806 58.428-85.924 20.622 17.185-79.05 103.11-58.428-65.302 17.185-6.874z"/><g fill="#4d8af0"><use xlink:href="#B" class="B"/><use xlink:href="#B" x="-146" y="325" class="B"/></g><g fill="#f55f44"><circle cx="748.399" cy="254" r="6" class="B"/><circle cx="121.399" cy="683" r="6" class="B"/><circle cx="850.399" cy="485" r="6" class="B"/></g><g fill="#4d8af0"><use xlink:href="#B" x="539" y="29" class="B"/><use xlink:href="#B" x="639" y="657" class="B"/><use xlink:href="#B" x="-153" y="135" class="B"/></g><g class="C"><circle cx="79.399" cy="284" r="6" class="B"/><circle cx="853.399" cy="332" r="6" class="B"/><g class="B"><path d="M583.4 0h3v17h-3z"/><path d="M593.4 7v3h-17V7z"/><path d="M594.4 666h3v17h-3z"/><path d="M604.4 673v3h-17v-3z"/><path d="M26.4 702h3v17h-3z"/><path d="M36.4 709v3h-17v-3z"/><path d="M709.4 396h3v17h-3z"/><path d="M719.4 403v3h-17v-3z"/><path d="M795.606 123.018l6.443 5.906 9.128-13.424 3.222 2.685-12.35 16.11-9.128-10.202 2.685-1.074z"/></g></g><path fill="#fff" d="M589.444 240.134l22.226-.862 1.108 28.576-22.226.862z"/><path d="M511.4 339.35s-30.78-14.706-30.286-2.005 31.025 21.056 31.025 21.056z" class="D"/><path d="M528.296 446.81S513.775 482.353 508.4 508s-13.536 60.942-3.026 85.974 40.392 98.6 40.7 106.537-2.56 16 3.79 15.752 40.907-11.126 42.3-15.95-11.8-17.032-11.8-17.032l-32.577-102.082 33.99-66.505 24.516 99.215 4.802 123.828s23.567-7.274 26.988-1.047c0 0 10.56-14.72 11.9-21.13s-4.987-128.59-4.987-128.59 21.632-139.163 4.17-138.486-85.864-41.188-120.9-1.67z" fill="#fff"/><path d="M549.628 709.912s-16.1 35.603-17.635 37.252-12.023 17.955-4.085 17.648 26.68-8.984 40.476-22.24 31.984-36.22 30.335-37.745-12.947-5.858-12.947-5.858zm64.364 19.763s-.972 15.937-3.9 22.4-2.56 16 5.378 15.7 28.453-4.283 28.453-4.283 1.218-9.587-.43-11.113-8.676-18.743-5.686-23.628-23.813.923-23.813.923z" class="E"/><path d="M625.735 212.492s16.922 26.373 23.518 32.477-11.962 19.543-11.962 19.543l-33.215 4.468s.418-30.225-1.293-33.338 22.95-23.15 22.95-23.15z" class="D"/><path d="M596.865 247s6.843 12.454 13.193 12.208 39.196-14.24 40.6-19.064 10.88 34.557 10.88 34.557l-80.372 141.44-19.605-13.55 9.5-83.045 7.802-44.82z" fill="#fff"/><path d="M653.62 373.584c-3.206 6.707-5.208 13.7-4.93 20.86.012.318.025.635.053.952.76 14.693 6.173 31.686 8.115 44.044 1.41 8.865 1.008 15.336-4.18 16.856-12.577 3.668 1.834 6.29-46.826 22.485s-57.152 2.216-57.275-.96 6.89-27.296 5.242-28.822-23.074 19.974-29.548 17.045-.74-19.05-.74-19.05 14.583-33.954 14.275-41.892 22.09-45.375 22.09-45.375l15.234-99.167s5.858-12.947 13.734-14.842 14.41 2.62 14.41 2.62l-13.18 29.13-13.905 51.417 2.326 18.99s16.17-34.016 26.8-47.147 33.264-44.218 33.264-44.218 5.286-17.837 1.296-23.168c-3.99-5.346 16.647-6.147 25.446 15.77 4.664 11.616 12.236 28.94 16.98 45.068 4.227 14.29 6.223 27.646 2.036 35.28-6.4 11.664-22.5 26.995-30.708 44.12z" class="E"/><path d="M684.33 329.465c-6.4 11.664-22.5 26.995-30.708 44.12-2.144-7.723-4.76-15.715-4.76-15.715s-10.03-53.67 19.64-67.54a19.86 19.86 0 0 1 13.791 3.853c4.227 14.29 6.223 27.646 2.036 35.28z" opacity=".1"/><path d="M566.543 326.083l-25.154 7.335-34.926 1.354-3.593 30.348 57.398 4.134s14.336-40.304 6.276-43.17z" class="E"/><path d="M607.56 428.123s-33.652 5.583-25.97 15.7 37.492-.52 37.492-.52z" class="D"/><path d="M648.743 395.396c.76 14.693 6.173 31.686 8.115 44.044-10.72 10.146-20.914 19.095-24.756 19.244-7.938.308-20.7-.787-25.4.985s-7.458-28.33-7.458-28.33 2.806-9.648 15.32-14.904c8.448-3.555 24.64-13.198 34.18-21.04z" opacity=".1"/><path d="M668.133 280.805s26.865-4.222 25.414 40.353 2.832 73.027-7.973 81.396-45.903 46.298-53.84 46.606-20.7-.787-25.4.985-7.458-28.33-7.458-28.33 2.806-9.648 15.32-14.904 42.002-23.888 41.756-30.238-7.458-28.33-7.458-28.33-10.03-53.67 19.64-67.54z" class="E"/><circle cx="602.045" cy="216.591" r="34.952" class="D"/><path d="M578.51 166.494a6.75 6.75 0 0 1-2.939 1.475 2.1 2.1 0 0 1-2.43-1.683c-.8 1.658-1.702 3.426-3.335 4.277s-4.157.137-4.393-1.69c-.238 1.386-.852 2.68-1.774 3.744-1.013.966-2.85 1.2-3.734.125.715 3.907.274 7.926.498 11.892s1.282 8.17 4.278 10.778c4.37 3.803 10.94 2.865 16.69 2.144.87-.182 1.77-.133 2.615.143 2.152.917 2.055 3.913 2.084 6.252.363 8.476 6.794 15.45 15.212 16.498a8.71 8.71 0 0 0 6.472-1.58c1.632-1.383 2.466-3.638 4.336-4.677 3.042-1.7 6.732.775 8.956 3.452s4.416 5.97 7.862 6.46c4.557.648 8.028-3.996 9.73-8.272 4.746-12.108 4.4-25.62-.958-37.47-9.515-20.74-42.018-24.022-59.17-11.868z" fill="#2f2e41"/></svg>