<svg xmlns="http://www.w3.org/2000/svg" xmlns:xlink="http://www.w3.org/1999/xlink" width="921.67" height="831.295" xmlns:v="https://vecta.io/nano"><circle cx="436.469" cy="576.556" r="216.462" fill="#f2f2f2"/><g fill="#3f3d56"><ellipse cx="405.89" cy="803.234" rx="205.412" ry="28.061"/><ellipse cx="550.935" cy="262.308" rx="14.54" ry="7.058" transform="matrix(.947881 -.318625 .318625 .947881 -194.02831 154.86044)"/></g><use xlink:href="#B" fill="#fff"/><use xlink:href="#B" opacity=".2"/><path fill="#2f2e41" d="M405.524 404.125l31.76 5.294 10.587-50.29-25.585-10.587-16.763 55.582z"/><g fill="#a0616a"><circle cx="449.196" cy="366.629" r="27.35"/><path d="M437.285 382.07s2.647 33.526-17.645 36.173S437.285 480.882 447 480s27.35-65.287 27.35-65.287-22.94-15.88-14.998-29.997zm-33.967 122.2s3.53 25.585 14.116 25.585-7.058-29.114-7.058-29.114zm154.395 25.587s26.468 22.056 22.94 29.114-26.468-7.94-28.232-25.585zm-159.688 84.697l-16.763 62.64-18.527 75.874h17.645s6.176-23.82 17.645-36.173c0 0 11.47-19.4 11.47-32.644l27.35-64.405zm72.345 3.53l5.294 59.1s-.882 42.348 0 52.053 0 23.82 0 23.82h15.88s14.998-52.053 10.587-80.285l6.176-66.17z"/></g><g fill="#2f2e41"><path d="M449.196 455.737s-23.77-18.837-17.62-45.15c0 0-23.846 1.037-33.55 10.742s2.647 42.348 2.647 42.348 21.174 35.3 17.645 51.17-41.466 99.695-29.114 104.99 87.343 23.82 125.28-7.058c0 0 9.705-87.343-29.114-115.576v-22.056s7.058-6.176 3.53-22.056c0 0 14.998-27.35 6.176-32.644s-29.09-13.05-29.09-13.05 1.74 39.52-16.79 48.34z"/><path d="M403.318 421.33s-11.47-1.765-22.94 14.998-41.466 43.23-27.35 56.464 52.053 22.056 52.053 22.056l8.823-15.88-37.937-18.527 31.76-23.82zm87.344 0s12.352 0 17.645 14.998 36.173 66.17 36.173 66.17l17.645 27.35-12.352 14.116-34.408-38.82-32.644-53.818zM383.9 751.293h-24.703l-5.294 43.23s-14.116 22.94 7.058 20.292 14.116-26.468 14.116-26.468l5.294-8.823 1.765 18.527 1.765-.882v-20.29s9.705-8.823 0-25.585zm112.045 0l-22.94-1.765-4.4 49.406s-2.647 18.527 13.234 15.88 10.587-17.645 10.587-17.645v-27.35zm-66.6-412.455s-12.853 4.284-13.506 21.204a30.01 30.01 0 0 0 .892 8.034c.724 3.067 1.2 9.667-4.42 18.3a180.86 180.86 0 0 0-10.276 17.677l-.04.08 14.116 1.765 3.002-23.398a116.53 116.53 0 0 1 9.252-32.848l.098-.218s6.176 11.47 18.527 11.47l-4.4-4.4s19.4 7.94 26.468 7.94c0 0 5.294 3.53 0 8.823s-15.88 17.645-9.705 27.35.882 12.352.882 12.352l9.705-5.294 4.4-2.647v3.53l22.94-2.647s6.176-.882-7.058-15.88c0 0-3.495-5.824-1.966-10.848a25.34 25.34 0 0 0 .963-11.85c-2.965-16.54-14.597-49.422-59.873-28.473z"/></g><path d="M567.308 557.397c8.73-8.877-.94-27.263-1.695-28.66L465.91 325.142c-.634-1.28-2.185-1.808-3.468-1.18s-1.818 2.177-1.195 3.463l99.78 203.745c.1.182 9.726 18.466 1.152 23.705-9.234 5.646-20.002-3.5-20.11-3.593-.7-.608-1.674-.796-2.552-.49s-1.525 1.054-1.7 1.966.153 1.848.857 2.453c.557.48 13.78 11.696 26.21 4.094.882-.534 1.694-1.175 2.42-1.908z" fill="#3f3d56"/><path d="M375.163 245.528l73.873-33.66s125.154-47.306 232.217 68.17c0 0-47.983-30.8-84.352 9.886 0 0-68.437-18.515-125.87 49.515 0 0-89.827 13.603-127.24 61.274 0 0-43.007-6.614-59.06 48.954l-2.22-2.184s-24.454-114.332 92.652-201.953z" fill="#fff"/><g fill="#3f3d56"><path d="M375.527 245.32s-36.173 121.752-31.76 155.277m70-172.654s45.585 102.955 57.054 111.777"/><path d="M448.755 211.793s117.34 70.58 148.22 78.52M272.342 798.546c-.212-.346-5.212-8.695-6.945-26.03-1.6-15.904-.568-42.712 13.335-80.106 26.338-70.84-6.07-128-6.4-128.57l1.6-.928c.084.144 8.447 14.718 13.387 37.923 6.527 30.766 4.15 62.755-6.852 92.218-26.293 70.72-6.746 104.2-6.545 104.53z"/><circle cx="262.043" cy="547.669" r="12.012"/><circle cx="299.926" cy="592.02" r="12.012"/></g><g fill="#fff"><circle cx="274.055" cy="621.587" r="12.012"/><circle cx="305.469" cy="646.534" r="12.012"/></g><g fill="#3f3d56"><circle cx="264.815" cy="685.34" r="12.012"/><path d="M279.598 798.988s-12.012-29.567 24.023-51.742zm-14.772-.536S259.36 767 217.05 767.28zM191.762 0l42.28 23.132-81.918 54.254-39.187-25.85L191.762 0zM90.1 73.493L0 131.572l41.837 24.865 90.055-60.12L90.1 73.493z"/></g><path d="M106.67 44.667a35.51 35.51 0 0 0-19.113 24.204c-.936 3.87.397 7.934 3.442 10.497l26.044 21.995c3.835 3.232 9.27 3.756 13.65 1.317 10.59-5.872 27.594-18.2 20-33.81a10.79 10.79 0 0 0-3.76-4.27L117.91 45.407a11.33 11.33 0 0 0-11.239-.74z" fill="#d0cde1"/><ellipse cx="301.389" cy="130.984" rx="42.841" ry="29.094" transform="matrix(.597201 -.802091 .802091 .597201 -122.82677 260.14939)" fill="#3f3d56"/><path d="M148.963 130.507c5.28 3.934 17.84-3.82 29.13-17.58q1.5-1.824 2.965-3.79 1.073-1.443 2.07-2.886c10.468-15.126 14.606-29.962 9.2-33.987-5.447-4.058-18.625 4.31-30.178 18.87q-.968 1.224-1.916 2.496c-2.187 2.932-4.21 5.983-6.057 9.14-7.446 12.782-9.866 24.265-5.21 27.733z" opacity=".2"/><g fill="#d0cde1"><path d="M154.174 102.773l41.03 17.42 2.53-3.416-35.59-25.64q-.968 1.224-1.916 2.496c-2.187 2.932-4.21 5.983-6.057 9.14z"/><circle cx="199.844" cy="120.82" r="5.199"/></g><path d="M201.37 175.74a2.48 2.48 0 0 1 1.176-.6c28.002-5.786 45.622-21.9 53.865-49.3a2.491 2.491 0 1 1 4.771 1.436c-8.696 28.887-28.085 46.628-57.628 52.732a2.49 2.49 0 0 1-2.184-4.279zm-6.892-21.678c.33-.303.737-.5 1.176-.6 20.996-4.34 34.207-16.427 40.388-36.957a2.491 2.491 0 1 1 4.771 1.436c-6.663 22.13-21.517 35.723-44.15 40.4a2.49 2.49 0 0 1-2.184-4.279zm17.074 43.875c.33-.303.737-.5 1.176-.6 27.945-5.774 58.504-33.737 66.73-61.06a2.491 2.491 0 1 1 4.771 1.436c-8.7 28.865-40.972 58.404-70.493 64.504a2.49 2.49 0 0 1-2.184-4.279z" fill="#fff"/><path d="M729.9 0l-42.28 23.132 81.917 54.254 39.187-25.85L729.9 0zm101.672 73.493l90.088 58.08-41.837 24.865-90.054-60.12 41.803-22.825z" fill="#3f3d56"/><path d="M815 44.667a35.51 35.51 0 0 1 19.113 24.204c.936 3.87-.397 7.934-3.442 10.497l-26.044 21.995c-3.835 3.232-9.27 3.756-13.65 1.317-10.59-5.872-27.594-18.2-20-33.81a10.79 10.79 0 0 1 3.76-4.27l29.026-19.194a11.33 11.33 0 0 1 11.239-.74z" fill="#d0cde1"/><ellipse cx="898.611" cy="130.984" rx="29.094" ry="42.841" transform="matrix(.802091 -.597201 .597201 .802091 -39.54578 528.222)" fill="#3f3d56"/><path d="M772.708 130.507c-5.28 3.934-17.84-3.82-29.13-17.58q-1.5-1.824-2.965-3.79-1.073-1.443-2.07-2.886c-10.468-15.126-14.606-29.962-9.2-33.987 5.447-4.058 18.625 4.31 30.178 18.87q.968 1.224 1.916 2.496c2.187 2.932 4.21 5.983 6.057 9.14 7.446 12.782 9.866 24.265 5.21 27.733z" opacity=".2"/><g fill="#d0cde1"><path d="M767.497 102.773l-41.03 17.42-2.53-3.416 35.59-25.64q.968 1.224 1.916 2.496c2.187 2.932 4.21 5.983 6.057 9.14z"/><circle cx="721.826" cy="120.82" r="5.199"/></g><path d="M720.3 175.74a2.48 2.48 0 0 0-1.176-.6c-28.002-5.786-45.622-21.9-53.865-49.3a2.491 2.491 0 1 0-4.771 1.436c8.697 28.887 28.085 46.628 57.628 52.732a2.49 2.49 0 0 0 2.184-4.279zm6.892-21.678c-.33-.303-.737-.5-1.176-.6-20.996-4.34-34.207-16.427-40.388-36.957a2.491 2.491 0 1 0-4.771 1.436c6.663 22.13 21.517 35.723 44.15 40.4a2.49 2.49 0 0 0 2.184-4.279zm-17.072 43.875c-.33-.303-.737-.5-1.176-.6-27.945-5.774-58.504-33.737-66.73-61.06a2.491 2.491 0 1 0-4.771 1.436c8.7 28.865 40.972 58.404 70.493 64.504a2.49 2.49 0 0 0 2.184-4.279z" fill="#fff"/><defs ><path id="B" d="M382.295 260.126l76.275-34.754s129.222-48.844 239.766 70.385c0 0-49.542-31.803-87.094 10.207 0 0-70.662-19.117-129.96 51.124 0 0-92.747 14.045-131.375 63.265 0 0-43.064-6.623-60.205 47.97-.172.543-.613.958-1.166 1.095s-1.137-.022-1.543-.42h0c-.238-.232-.398-.532-.46-.86-1.61-8.437-20.55-120.986 95.764-208.013z"/></defs></svg>